<svg width="12" height="18" viewBox="0 0 12 18" fill="none" xmlns="http://www.w3.org/2000/svg">
<path d="M0.834607 17.8544C0.941505 17.9469 1.08691 17.9992 1.23893 17.9999C1.39124 18.0011 1.53762 17.9486 1.64324 17.8544L11.1777 9.6817C11.2859 9.59019 11.3468 9.46544 11.3468 9.33514C11.3468 9.20484 11.2859 9.08008 11.1777 8.98858L1.64324 0.814332C1.53733 0.717266 1.38996 0.661177 1.23495 0.659002C1.07982 0.656826 0.930475 0.708564 0.820744 0.802607C0.711164 0.896533 0.650666 1.02467 0.653345 1.15752C0.655883 1.29037 0.721319 1.41669 0.834564 1.50748L9.96466 9.33514L0.834564 17.1609C0.726818 17.2527 0.666316 17.3774 0.666316 17.5076C0.666316 17.6377 0.726818 17.7624 0.834564 17.8542L0.834607 17.8544Z" fill="white"/>
</svg>
