<svg width="12" height="18" viewBox="0 0 12 18" fill="none" xmlns="http://www.w3.org/2000/svg">
<path d="M11.1654 0.145605C11.0585 0.0531311 10.9131 0.000787697 10.7611 6.47987e-05C10.6088 -0.00114447 10.4624 0.0514411 10.3568 0.145605L0.822302 8.3183C0.714134 8.40981 0.65321 8.53456 0.65321 8.66486C0.65321 8.79516 0.714134 8.91992 0.822302 9.01142L10.3568 17.1857C10.4627 17.2827 10.61 17.3388 10.765 17.341C10.9202 17.3432 11.0695 17.2914 11.1793 17.1974C11.2888 17.1035 11.3493 16.9753 11.3467 16.8425C11.3441 16.7096 11.2787 16.5833 11.1654 16.4925L2.03534 8.66486L11.1654 0.839058C11.2732 0.747311 11.3337 0.62256 11.3337 0.492376C11.3337 0.362309 11.2732 0.237558 11.1654 0.145819L11.1654 0.145605Z" fill="white"/>
</svg>
