<svg width="33" height="32" viewBox="0 0 33 32" fill="none" xmlns="http://www.w3.org/2000/svg">
<path d="M21.1305 16C21.1305 17.3261 20.6037 18.5979 19.666 19.5355C18.7283 20.4732 17.4566 21 16.1305 21C14.8044 21 13.5326 20.4732 12.595 19.5355C11.6573 18.5979 11.1305 17.3261 11.1305 16C11.1305 15.715 11.1605 15.4367 11.2122 15.1667H9.46383V21.8283C9.46383 22.2917 9.83883 22.6667 10.3022 22.6667H21.9605C22.1825 22.6662 22.3953 22.5777 22.5522 22.4205C22.7091 22.2634 22.7972 22.0504 22.7972 21.8283V15.1667H21.0488C21.1005 15.4367 21.1305 15.715 21.1305 16ZM16.1305 19.3333C16.5683 19.3332 17.0019 19.2469 17.4064 19.0792C17.8108 18.9116 18.1783 18.6659 18.4879 18.3562C18.7974 18.0465 19.0429 17.6789 19.2103 17.2743C19.3778 16.8698 19.4639 16.4362 19.4638 15.9983C19.4637 15.5605 19.3774 15.1269 19.2097 14.7225C19.0421 14.318 18.7964 13.9505 18.4867 13.641C18.177 13.3314 17.8094 13.0859 17.4048 12.9185C17.0003 12.751 16.5667 12.6649 16.1288 12.665C15.2445 12.6652 14.3966 13.0167 13.7715 13.6421C13.1463 14.2676 12.7953 15.1157 12.7955 16C12.7957 16.8843 13.1472 17.7322 13.7726 18.3574C14.3981 18.9825 15.2462 19.3336 16.1305 19.3333ZM20.1305 12.5H22.1288C22.2616 12.5 22.3889 12.4474 22.483 12.3537C22.577 12.2599 22.6301 12.1328 22.6305 12V10.0017C22.6305 9.86862 22.5776 9.74102 22.4836 9.64693C22.3895 9.55285 22.2619 9.5 22.1288 9.5H20.1305C19.9974 9.5 19.8698 9.55285 19.7758 9.64693C19.6817 9.74102 19.6288 9.86862 19.6288 10.0017V12C19.6305 12.275 19.8555 12.5 20.1305 12.5ZM16.1305 0C11.887 0 7.81737 1.68571 4.81678 4.68629C1.8162 7.68687 0.130493 11.7565 0.130493 16C0.130493 20.2435 1.8162 24.3131 4.81678 27.3137C7.81737 30.3143 11.887 32 16.1305 32C18.2316 32 20.3122 31.5861 22.2534 30.7821C24.1946 29.978 25.9585 28.7994 27.4442 27.3137C28.9299 25.828 30.1085 24.0641 30.9126 22.1229C31.7166 20.1817 32.1305 18.1012 32.1305 16C32.1305 13.8989 31.7166 11.8183 30.9126 9.87706C30.1085 7.93586 28.9299 6.17203 27.4442 4.68629C25.9585 3.20055 24.1946 2.022 22.2534 1.21793C20.3122 0.413852 18.2316 0 16.1305 0ZM24.4638 22.4817C24.4638 23.5 23.6305 24.3333 22.6122 24.3333H9.64883C8.63049 24.3333 7.79716 23.5 7.79716 22.4817V9.51833C7.79716 8.5 8.63049 7.66667 9.64883 7.66667H22.6122C23.6305 7.66667 24.4638 8.5 24.4638 9.51833V22.4817Z" fill="#E6E6E6"/>
</svg>
