<svg width="33" height="32" viewBox="0 0 33 32" fill="none" xmlns="http://www.w3.org/2000/svg">
<path d="M16.1305 0C7.29383 0 0.130493 7.16333 0.130493 16C0.130493 24.8367 7.29383 32 16.1305 32C24.9672 32 32.1305 24.8367 32.1305 16C32.1305 7.16333 24.9672 0 16.1305 0ZM12.2138 22.6317H8.97383V12.205H12.2138V22.6317ZM10.5738 10.925C9.55049 10.925 8.88883 10.2 8.88883 9.30333C8.88883 8.38833 9.57049 7.685 10.6155 7.685C11.6605 7.685 12.3005 8.38833 12.3205 9.30333C12.3205 10.2 11.6605 10.925 10.5738 10.925ZM24.0472 22.6317H20.8072V16.8533C20.8072 15.5083 20.3372 14.595 19.1655 14.595C18.2705 14.595 17.7388 15.2133 17.5038 15.8083C17.4172 16.02 17.3955 16.32 17.3955 16.6183V22.63H14.1538V15.53C14.1538 14.2283 14.1122 13.14 14.0688 12.2033H16.8838L17.0322 13.6517H17.0972C17.5238 12.9717 18.5688 11.9683 20.3172 11.9683C22.4488 11.9683 24.0472 13.3967 24.0472 16.4667V22.6317Z" fill="#E6E6E6"/>
</svg>
