<svg width="33" height="32" viewBox="0 0 33 32" fill="none" xmlns="http://www.w3.org/2000/svg">
<path d="M16.1305 0C7.29478 0 0.130493 7.16429 0.130493 16C0.130493 24.8357 7.29478 32 16.1305 32C24.9662 32 32.1305 24.8357 32.1305 16C32.1305 7.16429 24.9662 0 16.1305 0ZM23.8198 12.0607C23.8305 12.2286 23.8305 12.4036 23.8305 12.575C23.8305 17.8179 19.8376 23.8571 12.5412 23.8571C10.2912 23.8571 8.20549 23.2036 6.44835 22.0786C6.76978 22.1143 7.07692 22.1286 7.40549 22.1286C9.26264 22.1286 10.9698 21.5 12.3305 20.4357C10.5876 20.4 9.12335 19.2571 8.62335 17.6857C9.23406 17.775 9.78407 17.775 10.4126 17.6143C9.51523 17.432 8.70862 16.9446 8.12984 16.2349C7.55106 15.5253 7.2358 14.6372 7.23764 13.7214V13.6714C7.76264 13.9679 8.38049 14.15 9.02692 14.175C8.4835 13.8128 8.03784 13.3222 7.72946 12.7465C7.42108 12.1709 7.25951 11.528 7.25907 10.875C7.25907 10.1357 7.45192 9.46071 7.79835 8.875C8.79443 10.1012 10.0374 11.1041 11.4464 11.8184C12.8555 12.5328 14.3991 12.9427 15.9769 13.0214C15.4162 10.325 17.4305 8.14286 19.8519 8.14286C20.9948 8.14286 22.0234 8.62143 22.7484 9.39286C23.6448 9.225 24.5019 8.88929 25.2662 8.43929C24.9698 9.35714 24.3484 10.1321 23.5234 10.6214C24.3234 10.5357 25.0948 10.3143 25.8091 10.0036C25.2698 10.7964 24.5948 11.5 23.8198 12.0607Z" fill="#E6E6E6"/>
</svg>
