<svg width="33" height="32" viewBox="0 0 33 32" fill="none" xmlns="http://www.w3.org/2000/svg">
<path d="M16.1305 0C7.29383 0 0.130493 7.16333 0.130493 16C0.130493 24.8367 7.29383 32 16.1305 32C24.9672 32 32.1305 24.8367 32.1305 16C32.1305 7.16333 24.9672 0 16.1305 0ZM17.2255 19.7917C16.1988 19.7133 15.7688 19.205 14.9655 18.7183C14.5238 21.0367 13.9838 23.26 12.3838 24.4217C11.8888 20.915 13.1072 18.285 13.6738 15.49C12.7088 13.865 13.7888 10.5967 15.8255 11.4C18.3305 12.3933 13.6555 17.4417 16.7938 18.0733C20.0705 18.73 21.4088 12.3867 19.3772 10.3267C16.4405 7.34833 10.8322 10.2583 11.5222 14.5217C11.6888 15.5633 12.7672 15.88 11.9522 17.3183C10.0738 16.9017 9.51216 15.42 9.58549 13.445C9.70049 10.2117 12.4905 7.94667 15.2872 7.635C18.8255 7.24167 22.1455 8.93333 22.6055 12.2633C23.1205 16.02 21.0072 20.085 17.2255 19.7917Z" fill="#E6E6E6"/>
</svg>
